<svg viewBox="0 0 171.1 36"
  xmlns:xlink="http://www.w3.org/1999/xlink"
  xmlns="http://www.w3.org/2000/svg">
  <defs>

    <!-- net -->
    <g id="net" class="non-blue" fill-rule="evenodd" stroke="none">
      <path id="net_n" d="M0 56.26h11.27V25.78c0-9.18 7.74-15.2 12.86-15.2 7.46 0 12.44 4.19 12.44 14.41v31.27h11.24V22.32C47.81 6 36.03.11 27.49.11c-5.54 0-13.24 1.86-16 6.1l-.21-.12V0H0v56.26z" transform="translate(0 18.13)" />
      <path id="net_e" d="M56.01 33.83v-2.21C56.01 9.62 39.79 0 28.87 0 10.6 0 0 14.76 0 29.64s10.6 29.64 28.87 29.64c9.41-.11 18.06-5.23 24.33-13.71l-9.52-5.7c-3.89 5.58-9.08 8.72-15.13 8.72-8.346-.047-15.282-6.445-16-14.76a42.244 42.244 0 01-.53-5.16c.063-1.624.24-3.241.53-4.84 1.83-8.37 7.67-13.13 14.81-13.13 7.14 0 13.08 4.53 15.46 13.13H21.91v10h34.1z" transform="translate(55.62 15.12)" />
      <path id="net_t" d="M25.1 28.02V16.63h-7.48V0L6.38 3.37v13.26H0v11.39h6.38v28.07c0 5.34 1.49 9.77 4.32 12.81a13.46 13.46 0 0010.21 4.22h3V60.85h-3.09a2.84 2.84 0 01-2.13-.63c-.62-.65-1-2.2-1-4.13l-.09-15.34V28.02h7.5z" transform="translate(117.17 1.2)" />
    </g>

    <!-- on -->
    <g id="on" fill-rule="evenodd" stroke="none">
      <path id="on_back" class="non-red" transform="translate(153.56 3.57)" d="M0 38.67C0 13.75 20.3 0 43.49 0s43.48 13.75 43.48 38.67-20.26 38.68-43.48 38.68C20.27 77.35 0 63.6 0 38.67" />
      <g class="non-white">
        <path id="on_o" d="M14.74 0C5.41 0 0 7.54 0 15.14c0 7.6 5.41 15.14 14.74 15.14s14.75-7.54 14.75-15.14C29.49 7.54 24.08 0 14.74 0m0 24.46c-5 0-8.67-4.15-8.67-9.32s3.65-9.32 8.67-9.32 8.68 4.15 8.68 9.32-3.65 9.32-8.68 9.32" transform="translate(166.89 27.54)" />
        <path id="on_n" d="M0 29.515h5.74v-16.09c0-4.69 2.87-7.25 6.57-7.25s6.36 2.14 6.36 7.37v16h5.74v-17.37c0-7.12-4.75-12.17-10.39-12.17a9.25 9.25 0 00-8.17 4.39h-.11V.775H0v28.74z" transform="translate(201.68 27.485)" />
      </g>
    </g>

    <!-- BACKGROUND -->
    <clipPath id="clip">
      <use xlink:href="#background" />
    </clipPath>
    <path id="background" d="M0 0h395.91v80.92H0V0z" />

    <!-- B2B -->
    <path id="B2B_B" class="non-red" d="M843.51,409Q857,401.48,857,388.51q0-13.5-9.44-20.76c-5.93-4.56-14.05-6.95-24.3-7.22v16.2q14.63.84,14.64,12.53,0,12.5-14.39,14v14.93q10.28.54,14.82,4.14,5.36,4.26,5.36,13.57,0,10.21-5.77,14.61t-18.55,4.4q-3.6,0-9.41-.52V377h0V360.72q-7.8.25-19.15.8V470.66h32.92q17.56,0,28.66-8.76t11.09-23.67Q863.57,416.09,843.51,409Z" transform="translate(-443.5 -359.42)" />
    <g id="B2B_2" class="non-red">
      <path d="M897.85,380.58a17.94,17.94,0,0,1,14-6,16.3,16.3,0,0,1,11.74,4.67q4.85,4.67,4.85,14.16a17.05,17.05,0,0,1-4.11,11.25A53.91,53.91,0,0,1,913.94,414q-6.24,4.42-13.38,8.75A132.35,132.35,0,0,0,887.17,432a48.55,48.55,0,0,0-10,10.52h24.67a3.44,3.44,0,0,1,.27-.27,118,118,0,0,1,11.17-9.09q5.91-4.25,12-8.24a76.47,76.47,0,0,0,11-8.75,40.54,40.54,0,0,0,8-10.67,30.12,30.12,0,0,0,3-13.91,32.51,32.51,0,0,0-2.29-12,30.58,30.58,0,0,0-6.74-10.33,32,32,0,0,0-11.09-7.17,41.17,41.17,0,0,0-15.35-2.66,41.71,41.71,0,0,0-15.11,2.66,35.41,35.41,0,0,0-12,7.59,38.62,38.62,0,0,0-8.3,11.91,51.43,51.43,0,0,0-4.19,15.5h19.55Q892.43,386.58,897.85,380.58Z" transform="translate(-153.5 -359.42)" />
      <path d="M893.75,453.38H873a29.6,29.6,0,0,0-.23,3.69v13.49h74.56V453.4H893.74Z" transform="translate(-153.5 -359.42)" />
    </g>

    <!-- logo parts -->
    <g id="part_netonnet" clip-path="url(#clip)">
      <use xlink:href="#net" />
      <use xlink:href="#on" />
      <use xlink:href="#net" x="253" />
    </g>

    <g id="part_b2b" transform="scale(0.66)">
      <use xlink:href="#B2B_B" x="287" />
      <use xlink:href="#B2B_2" x="-1" />
      <use xlink:href="#B2B_B" x="459" />
    </g>

    <!-- logos -->
    <g id="logo_b2c">
      <use xlink:href="#part_netonnet" />
    </g>

    <g id="logo_b2b">
      <use xlink:href="#part_netonnet" />
      <use xlink:href="#part_b2b" transform="translate(0.0 1.0)" />
    </g>

    <style>
      .non-blue {
        fill: #0095da;
      }
      .non-red {
        fill: #ed1c24;
      }
      .non-white {
        fill: #fff;
      }
    </style>
  </defs>

  <use xlink:href="#logo_b2c" transform="scale(.433)"/>

</svg>